<svg id="Water" xmlns="http://www.w3.org/2000/svg" width="447" height="295" viewBox="0 0 447 295">
  <rect id="Rectangle_18" data-name="Rectangle 18" width="447" height="295" rx="5" fill="#74d8d8"/>
  <g id="Group_2303" data-name="Group 2303" transform="translate(148.835 14.867)">
    <path id="Path_2993" data-name="Path 2993" d="M-109.8-7.867s215.9.6,281.342,1.22,55.663,5.506,34.595,6.108C185.076.08,155.749,1.919,103.843.08S-42.844,3.139-67.676,1.3-167.717-5.426-109.8-7.867Z" transform="translate(22.206 3.018)" fill="#A7E9DC" />
    <path id="Path_2994" data-name="Path 2994" d="M-66.841,7.1s-4.927,81.8-.99,105.175.99,30.248.99,63.235c0,33-1.479,59.815,1.474,73.565s5.911-35.053,5.422-68.055S-61.431-50.644-66.841,7.1Z" transform="translate(343.307 8.095)" fill="#A7E9DC"  />
    <path id="Path_2995" data-name="Path 2995" d="M-125.933,39.851s49.906-3.06,89.278,1.226,106.861-1.226,137.793-1.226,144.113-2.441,158.874,4.286S136.98,50.852,84.967,49.626-162.49,46.578-125.933,39.851Z" transform="translate(2.26 220.762)" fill="#A7E9DC"  />
    <path id="Path_2996" data-name="Path 2996" d="M-137.507-1.35s4.848,22.124,3.228,38.541,0,57.792,0,93.476-2.154,97.051-4.854,100.618-4.319-72.07-4.319-102.047S-144.532-27.034-137.507-1.35Z" transform="translate(1.495 14.306)" fill="#A7E9DC"  />
  </g>
</svg>
